<svg aria-hidden="true" style="position:absolute;width:0;height:0;overflow:hidden" xmlns="http://www.w3.org/2000/svg"><defs><symbol id="icon-close" viewBox="0 0 32 32"><path fill="none" stroke="#fff" style="stroke:var(--color1, #fff)" stroke-width="2" d="m2.52 2 26.96 28M2 29.48 30 2.52"/></symbol><symbol id="icon-burger" viewBox="0 0 46 32"><path fill="none" stroke="#d41443" style="stroke:var(--color2, #d41443)" stroke-width="2.286" d="M0 2.286h45.714M0 16h45.714M0 29.714h45.714"/></symbol><symbol id="icon-vector" viewBox="0 0 26 32"><path fill="none" stroke="#d41443" style="stroke:var(--color2, #d41443)" stroke-linejoin="round" stroke-linecap="round" stroke-width="6.4" d="M5.171 3.2 19.341 16 5.171 28.8"/></symbol><symbol id="icon-quotes" viewBox="0 0 43 32"><path fill="#e1e1e1" style="fill:var(--color3, #e1e1e1)" d="M32.014 0c1.928 0 3.75.52 5.464 1.561s3.107 2.537 4.178 4.488c1.029 1.951 1.543 4.25 1.543 6.894s-.643 5.225-1.928 7.74c-.429.91-1.2 2.081-2.315 3.512a63.65 63.65 0 0 1-3.214 3.707L31.692 32l-2.893-4.813a22.225 22.225 0 0 0 5.306-4.646l.03-.037c1.542-1.821 2.314-3.49 2.314-5.008 0-.781-.171-1.41-.514-1.886a8.361 8.361 0 0 1-5.014 1.626c-1.328 0-2.593-.412-3.793-1.236a8.638 8.638 0 0 1-2.935-3.078l-.022-.043c-.771-1.258-1.157-2.558-1.157-3.902 0-1.518.45-2.97 1.35-4.358a10.313 10.313 0 0 1 3.364-3.356l.044-.025C29.142.414 30.556.002 32.014.002zM8.936 0c1.928 0 3.75.52 5.464 1.561s3.107 2.536 4.178 4.488c1.029 1.951 1.543 4.25 1.543 6.894 0 1.864-.236 3.534-.707 5.008-.472 1.518-1.286 3.1-2.443 4.748-1.114 1.561-2.164 2.862-3.15 3.902-.986 1.084-2.7 2.883-5.143 5.398l-2.893-4.813a22.225 22.225 0 0 0 5.306-4.646l.03-.037c1.542-1.821 2.314-3.49 2.314-5.008 0-.781-.172-1.41-.514-1.886a8.361 8.361 0 0 1-5.014 1.626c-1.328 0-2.593-.412-3.793-1.236a8.638 8.638 0 0 1-2.935-3.078l-.022-.043C.386 11.62 0 10.32 0 8.976c0-1.518.429-2.97 1.286-4.358A10.313 10.313 0 0 1 4.65 1.262l.045-.025C6.065.413 7.479.001 8.937.001z"/></symbol><symbol id="icon-house" viewBox="0 0 35 32"><path fill="#d31342" style="fill:var(--color4, #d31342)" d="M32.64 15.4a1.539 1.539 0 0 0-.128-2.223l-.002-.002L17.737.426a1.849 1.849 0 0 0-1.184-.425c-.466 0-.892.171-1.218.454l.002-.002L.516 13.856a1.53 1.53 0 0 0-.072 2.222l.373.381c.613.635 1.611.709 2.224.168l1.107-.979v14.328a1.6 1.6 0 0 0 1.6 1.589H11.55a1.6 1.6 0 0 0 1.6-1.589V19.951h7.371v10.024c-.013.88.624 1.589 1.515 1.589h6.134a1.6 1.6 0 0 0 1.6-1.589V15.849l.685.592c.376.325 1.168.064 1.765-.587l.421-.453z"/></symbol><symbol id="icon-github" viewBox="0 0 32 32"><path fill="#fff" style="fill:var(--color1, #fff)" d="M16 .941C7.728.941.941 7.73.941 16c0 7.059 4.954 13.47 11.53 15.059v-4.982c-.651.144-1.251.147-1.915-.048-.89-.264-1.613-.856-2.149-1.76-.342-.576-.949-1.203-1.581-1.157l-.155-1.758c1.368-.117 2.55.834 3.253 2.014.312.525.672.832 1.133.968.445.131.923.069 1.482-.128.139-1.117.651-1.536 1.037-2.123-3.922-.586-5.485-2.667-6.106-4.309-.822-2.181-.381-4.906 1.072-6.627.029-.032.08-.122.061-.182-.667-2.014.144-3.68.176-3.856.768.227.893-.229 3.341 1.258l.422.254c.176.106.122.045.299.032a12.465 12.465 0 0 1 3.15-.445h.01c1.147.018 2.247.183 3.294.478l-.09-.022.138.014c-.013-.002.037-.01.12-.059 3.056-1.851 2.947-1.246 3.766-1.512.03.176.832 1.869.171 3.856-.088.275 2.651 2.784 1.133 6.811-.621 1.643-2.184 3.723-6.106 4.309.502.768 1.107 1.174 1.104 2.755v6.219c6.576-1.589 11.53-8 11.53-15.059 0-8.272-6.787-15.059-15.059-15.059z"/></symbol><symbol id="icon-telegram" viewBox="0 0 40 32"><path fill="#fff" style="fill:var(--color1, #fff)" d="m16.206 20.75-.636 8.34c.908 0 1.302-.366 1.774-.802l4.26-3.8 8.83 6.034c1.62.84 2.76.398 3.196-1.39l5.796-25.346h.002c.514-2.236-.866-3.108-2.444-2.56L2.92 13.398c-2.324.84-2.29 2.052-.396 2.6l8.71 2.528 20.23-11.814c.952-.588 1.816-.264 1.104.326L16.206 20.75z"/></symbol><symbol id="icon-facebook" viewBox="0 0 16 32"><path fill="#fff" style="fill:var(--color1, #fff)" d="M14.266 15.97H10.09v15.39H3.762V15.968H.754V10.56h3.008V7.062C3.762 4.558 4.946.64 10.146.64l4.688.019v5.25h-3.402c-.557 0-1.342.282-1.342 1.475v3.184h4.73l-.554 5.4z"/></symbol></defs></svg>