<!-- Generated by IcoMoon.io -->
<svg version="1.1" xmlns="http://www.w3.org/2000/svg" width="32" height="50" viewBox="0 0 32 32">
    <title>apple-juice</title>
    <path fill="#ffa5ba"  d="M31.289 15.806l-0.545-0.545c-2.102-2.102-5.425-2.256-7.708-0.464-0.108-0.646-0.306-1.284-0.598-1.895-0.173-0.362-0.606-0.515-0.968-0.342s-0.515 0.606-0.342 0.968c0.923 1.931 0.673 4.203-0.588 5.881-0.107-0.909-0.47-1.708-1.077-2.315-0.564-0.564-1.26-0.938-2.037-1.11l1.259-15.197c0.017-0.202-0.052-0.402-0.189-0.552s-0.331-0.234-0.534-0.234h-16.738c-0.203 0-0.397 0.085-0.534 0.234s-0.206 0.349-0.189 0.552l2.53 30.547c0.031 0.376 0.346 0.666 0.723 0.666h12.927c0.019 0 0.038 0.001 0.058 0.001 0.509 0 1.023-0.051 1.534-0.155 1.919-0.39 3.368-1.064 4.307-2.003 1.251-1.251 2.099-2.769 2.387-4.275 0.308-1.608-0.049-3.020-1.004-3.975-0.634-0.634-1.476-1.003-2.436-1.091 0.668-0.819 1.135-1.763 1.387-2.759 1.073 0.89 2.393 1.336 3.713 1.336 1.491 0 2.982-0.567 4.117-1.702l0.545-0.545c0.136-0.136 0.213-0.321 0.213-0.513s-0.076-0.377-0.212-0.513zM18.987 21.043l-7.132 7.132c-1.134-1.432-1.589-3.29-1.221-5.102 0.283-1.393 1.117-3.064 1.939-3.886 1.019-1.019 2.198-1.667 3.32-1.824 0.176-0.025 0.35-0.037 0.519-0.037 0.8 0 1.507 0.274 2.027 0.794 0.65 0.65 0.846 1.708 0.549 2.923zM17.173 1.452l-0.314 3.795h-1.149l0.181-2.347c0.031-0.4-0.268-0.749-0.668-0.779s-0.749 0.268-0.779 0.668l-0.189 2.458h-11.927l-0.314-3.795h15.161zM4.423 30.547l-1.976-23.849h11.695l-0.219 2.852c-0.031 0.4 0.268 0.749 0.668 0.779 0.019 0.001 0.038 0.002 0.056 0.002 0.376 0 0.694-0.29 0.723-0.67l0.228-2.963h1.14l-0.762 9.194c-0.095 0.008-0.19 0.019-0.287 0.032-1.432 0.2-2.904 0.994-4.145 2.235-1.031 1.031-1.991 2.932-2.335 4.623-0.514 2.529 0.271 5.131 2.1 6.961 0 0 0 0 0.001 0s0 0 0.001 0c0.295 0.295 0.611 0.562 0.942 0.802h-7.832zM21.553 28.816c-0.734 0.734-1.935 1.274-3.57 1.607-1.812 0.368-3.67-0.087-5.102-1.221l7.132-7.132c1.215-0.296 2.273-0.101 2.923 0.549 1.305 1.305 0.671 4.143-1.383 6.197zM29.718 16.35c-1.704 1.704-4.476 1.704-6.18 0l-0.031-0.032 0.031-0.031c1.704-1.704 4.476-1.704 6.18 0l0.031 0.031-0.032 0.032z"></path>
    <path fill="#ffa5ba" d="M17.921 24.546l-0.871 0.871c-0.283 0.283-0.283 0.743 0 1.027 0.142 0.142 0.328 0.213 0.513 0.213s0.372-0.071 0.513-0.213l0.871-0.871c0.283-0.283 0.283-0.743 0-1.027s-0.743-0.284-1.027 0z"></path>
    <path fill="#ffa5ba" d="M15.525 22.15l-0.871 0.871c-0.283 0.283-0.284 0.743 0 1.027 0.142 0.142 0.328 0.213 0.513 0.213s0.372-0.071 0.513-0.213l0.871-0.871c0.283-0.283 0.284-0.743 0-1.027s-0.743-0.283-1.027 0z"></path>
    <path fill="#ffa5ba" d="M14.24 14.893c0.019 0.001 0.038 0.002 0.056 0.002 0.376 0 0.694-0.29 0.723-0.67l0.133-1.732c0.031-0.4-0.268-0.749-0.668-0.779s-0.749 0.268-0.779 0.668l-0.133 1.732c-0.031 0.4 0.268 0.749 0.668 0.779z"></path>
</svg>