<!-- Generated by IcoMoon.io -->
<svg version="1.1" xmlns="http://www.w3.org/2000/svg" width="40" height="50" viewBox="0 0 32 32">
    <title>ice-cream</title>
    <path fill="#ffa5ba" d="M22.352 5.651c-0.376-3.186-3.116-5.651-6.352-5.651-3.274 0-5.978 2.421-6.353 5.653-1.474 1.174-2.423 2.98-2.423 5.007 0 1.712 0.701 3.365 1.92 4.564l6.898 16.45c0.083 0.198 0.277 0.327 0.492 0.327 0.005 0 0.010 0 0.015 0 0.22-0.006 0.414-0.147 0.488-0.355l5.831-16.433c1.212-1.198 1.908-2.846 1.908-4.553 0-2.027-0.95-3.834-2.425-5.008zM16 1.067c2.384 0 4.446 1.605 5.109 3.813-0.831-0.395-1.756-0.622-2.735-0.622-0.823 0-1.62 0.158-2.376 0.461-0.734-0.295-1.533-0.462-2.372-0.462-0.983 0-1.911 0.229-2.743 0.626 0.652-2.234 2.7-3.816 5.117-3.816zM8.291 10.659c0-2.942 2.393-5.335 5.335-5.335s5.335 2.393 5.335 5.335c0 1.415-0.547 2.732-1.534 3.735h-7.603c-0.987-1.003-1.534-2.319-1.534-3.735zM16.492 29.988l-6.092-14.527h11.247l-5.155 14.527zM22.175 14.394h-3.356c0.775-1.081 1.208-2.39 1.208-3.735 0-2.159-1.078-4.069-2.72-5.229 0.348-0.070 0.705-0.106 1.067-0.106 2.942 0 5.335 2.393 5.335 5.335 0 1.415-0.547 2.732-1.534 3.735z"></path>
</svg>