<!-- Generated by IcoMoon.io -->
<svg version="1.1" xmlns="http://www.w3.org/2000/svg" width="40" height="50" viewBox="0 0 32 32">
    <title>milk-bottle</title>
    <path fill="#ffa5ba" d="M22.606 10.597l-3.090-6.123v-1.41h0.17c0.282 0 0.511-0.229 0.511-0.511v-2.043c0-0.282-0.229-0.511-0.511-0.511h-7.372c-0.282 0-0.511 0.229-0.511 0.511v2.043c0 0.282 0.229 0.511 0.511 0.511h0.17v1.41l-3.090 6.123c-0.375 0.742-0.668 1.976-0.668 2.807v16.723c0 1.032 0.84 1.872 1.872 1.872h10.804c1.032 0 1.872-0.84 1.872-1.872v-16.723c0-0.832-0.294-2.065-0.668-2.807zM12.825 1.021h6.351v1.021h-6.351v-1.021zM13.451 4.826c0.036-0.071 0.055-0.15 0.055-0.23v-1.532h4.989v1.532c0 0.080 0.019 0.159 0.055 0.23l1.943 3.85c-0.368 0.119-0.627 0.312-0.85 0.479-0.303 0.227-0.522 0.39-1.010 0.39s-0.707-0.164-1.010-0.39c-0.354-0.264-0.794-0.594-1.622-0.594s-1.268 0.329-1.622 0.594c-0.303 0.227-0.522 0.39-1.010 0.39s-0.707-0.164-1.010-0.39c-0.223-0.167-0.482-0.36-0.85-0.479l1.943-3.851zM22.253 30.128c0 0.469-0.382 0.851-0.851 0.851h-10.804c-0.469 0-0.851-0.382-0.851-0.851v-16.723c0-0.672 0.256-1.747 0.559-2.347l0.731-1.448c0.293 0.054 0.477 0.191 0.709 0.365 0.354 0.264 0.794 0.594 1.622 0.594s1.268-0.329 1.622-0.594c0.303-0.227 0.522-0.39 1.010-0.39s0.707 0.164 1.010 0.39c0.354 0.264 0.794 0.594 1.622 0.594s1.268-0.329 1.622-0.594c0.233-0.174 0.416-0.31 0.709-0.365l0.731 1.448c0.303 0.6 0.559 1.675 0.559 2.347v16.723z"></path>
    <path fill="#ffa5ba" d="M11.279 26.894c-0.282 0-0.511 0.229-0.511 0.511v2.043c0 0.282 0.229 0.511 0.511 0.511s0.511-0.229 0.511-0.511v-2.043c0-0.282-0.229-0.511-0.511-0.511z"></path>
    <path fill="#ffa5ba" d="M11.903 11.291c-0.252-0.127-0.559-0.026-0.686 0.226-0.227 0.449-0.449 1.384-0.449 1.887v11.957c0 0.282 0.229 0.511 0.511 0.511s0.511-0.229 0.511-0.511v-11.957c0-0.345 0.184-1.119 0.34-1.427 0.127-0.252 0.026-0.559-0.226-0.686z"></path>
    <path fill="#ffa5ba" d="M15.037 5.106h1.925c0.282 0 0.511-0.229 0.511-0.511s-0.229-0.511-0.511-0.511h-1.925c-0.282 0-0.511 0.229-0.511 0.511s0.229 0.511 0.511 0.511z"></path>
</svg>