<svg aria-hidden="true" style="position:absolute;width:0;height:0;overflow:hidden" xmlns="http://www.w3.org/2000/svg">
  <defs>
    <symbol id="icon-close" viewBox="0 0 32 32">
      <path stroke-width="2" d="m2.52 2 26.96 28M2 29.48 30 2.52" />
    </symbol>
    <symbol id="icon-logo" viewBox="0 0 23 32">
      <path d="M10.393 1.043c-1.729 0.264-3.2 0.857-4.421 1.771-0.736 0.557-1.786 1.693-2.243 2.421-0.793 1.271-1.379 2.943-1.486 4.271-0.050 0.557-0.057 0.571-0.279 0.671-0.357 0.143-0.814 0.593-1.021 0.993-0.143 0.286-0.186 0.471-0.186 0.864-0.007 0.829 0.407 1.5 1.129 1.857 0.329 0.157 0.379 0.221 0.45 0.486 0.114 0.414 0.557 1.029 0.986 1.35 0.436 0.336 1.121 0.557 1.707 0.557h0.443l2.636 7.221c2.1 5.75 2.671 7.243 2.807 7.357 0.221 0.171 0.521 0.171 0.736 0 0.121-0.093 0.893-2.036 2.921-7.336l2.757-7.207 0.657-0.043c0.957-0.057 1.6-0.4 2.179-1.157 0.136-0.179 0.307-0.493 0.371-0.693 0.1-0.293 0.164-0.379 0.357-0.457 0.571-0.243 1.086-0.929 1.214-1.621 0.121-0.671-0.293-1.564-0.929-1.971-0.521-0.343-0.536-0.357-0.536-0.657 0-0.45-0.2-1.464-0.436-2.207-1.036-3.25-3.629-5.621-6.921-6.336-0.521-0.114-2.45-0.2-2.893-0.136zM12.929 2.4c3.621 0.686 6.271 3.836 6.479 7.707 0.043 0.736 0.057 0.8 0.243 0.979 0.121 0.121 0.271 0.2 0.4 0.2 0.271 0 0.65 0.243 0.736 0.471 0.136 0.35 0.086 0.6-0.171 0.857-0.15 0.15-0.314 0.243-0.429 0.243-0.436 0-0.757 0.329-0.757 0.779 0 0.457-0.364 1-0.836 1.229-0.629 0.3-1.407 0.143-1.843-0.371-0.236-0.286-0.307-0.471-0.364-0.9-0.043-0.379-0.143-0.557-0.364-0.657-0.264-0.121-0.421-0.093-0.657 0.107-0.164 0.136-0.221 0.243-0.221 0.407 0 0.864-0.686 1.557-1.529 1.557-0.2 0-0.457-0.036-0.579-0.079-0.493-0.186-0.957-0.85-0.964-1.364 0-0.514-0.479-0.829-0.914-0.607-0.229 0.114-0.371 0.421-0.371 0.771 0 0.25-0.214 0.686-0.443 0.886-0.464 0.429-1.157 0.521-1.736 0.243-0.386-0.186-0.729-0.614-0.786-0.971-0.021-0.136-0.050-0.357-0.079-0.493-0.071-0.486-0.707-0.679-1.057-0.321-0.093 0.086-0.157 0.293-0.193 0.579-0.093 0.821-0.693 1.357-1.514 1.357s-1.421-0.564-1.529-1.436c-0.050-0.436-0.25-0.636-0.714-0.721-0.721-0.136-0.986-0.829-0.493-1.321 0.186-0.186 0.3-0.243 0.507-0.243 0.193 0 0.314-0.057 0.471-0.207 0.186-0.186 0.207-0.257 0.207-0.643 0-1.421 0.507-3.136 1.3-4.421 0.443-0.707 1.371-1.721 2.050-2.229 0.864-0.657 2.293-1.257 3.436-1.45 0.471-0.079 2.171-0.043 2.714 0.064zM8.214 16.064c0.214 0.093 0.593 0.186 0.836 0.207 0.25 0.014 0.45 0.050 0.45 0.079 0.007 0.086-1.321 3.507-1.357 3.507-0.021 0-0.371-0.914-0.779-2.036l-0.743-2.036 0.486-0.471 0.357 0.293c0.2 0.157 0.536 0.364 0.75 0.457zM12.464 16.043c0.264 0.107 0.321 0.164 0.293 0.279-0.086 0.329-3 7.821-3.043 7.821-0.029 0-0.243-0.543-0.486-1.207l-0.429-1.2 1.057-2.75c0.579-1.514 1.093-2.879 1.143-3.029s0.171-0.364 0.271-0.471l0.179-0.193 0.343 0.307c0.193 0.171 0.493 0.371 0.671 0.443zM13.764 22.121c-1.343 3.507-2.457 6.379-2.479 6.379s-0.236-0.557-0.479-1.229l-0.443-1.229 1.829-4.721c1-2.593 1.857-4.8 1.893-4.914 0.043-0.107 0.121-0.193 0.193-0.193 0.221 0 0.964-0.414 1.221-0.679l0.243-0.25 0.236 0.229 0.229 0.236-2.443 6.371z"></path>
      <path d="M19.243 17.871c-0.257 0.121-1.264 2.036-1.529 2.907-0.257 0.85-0.121 1.521 0.414 2.064 0.714 0.707 1.957 0.707 2.671 0 0.5-0.507 0.657-1.157 0.457-1.886-0.157-0.55-1.221-2.693-1.479-2.964-0.207-0.221-0.293-0.243-0.536-0.121zM20.093 20.557c0.329 0.721 0.371 0.929 0.271 1.25-0.129 0.386-0.379 0.571-0.807 0.6-0.293 0.021-0.436-0.007-0.614-0.121-0.236-0.143-0.443-0.514-0.443-0.779 0-0.286 0.536-1.621 0.836-2.071l0.107-0.171 0.193 0.35c0.1 0.193 0.307 0.614 0.457 0.943z"></path>
    </symbol>
    <symbol id="icon-burger" viewBox="0 0 46 32">
      <path stroke-width="2.286" d="M0 2.286h45.714M0 16h45.714M0 29.714h45.714" />
    </symbol>
    <symbol id="icon-vector" viewBox="0 0 26 32">
      <path fill="none" stroke="#d41443" style="stroke:var(--color2, #d41443)" stroke-linejoin="round" stroke-linecap="round" stroke-width="6.4" d="M5.171 3.2 19.341 16 5.171 28.8" />
    </symbol>
    <symbol id="icon-quotes" viewBox="0 0 43 32">
      <path fill="#e1e1e1" style="fill:var(--color3, #e1e1e1)" d="M32.014 0c1.928 0 3.75.52 5.464 1.561s3.107 2.537 4.178 4.488c1.029 1.951 1.543 4.25 1.543 6.894s-.643 5.225-1.928 7.74c-.429.91-1.2 2.081-2.315 3.512a63.65 63.65 0 0 1-3.214 3.707L31.692 32l-2.893-4.813a22.225 22.225 0 0 0 5.306-4.646l.03-.037c1.542-1.821 2.314-3.49 2.314-5.008 0-.781-.171-1.41-.514-1.886a8.361 8.361 0 0 1-5.014 1.626c-1.328 0-2.593-.412-3.793-1.236a8.638 8.638 0 0 1-2.935-3.078l-.022-.043c-.771-1.258-1.157-2.558-1.157-3.902 0-1.518.45-2.97 1.35-4.358a10.313 10.313 0 0 1 3.364-3.356l.044-.025C29.142.414 30.556.002 32.014.002zM8.936 0c1.928 0 3.75.52 5.464 1.561s3.107 2.536 4.178 4.488c1.029 1.951 1.543 4.25 1.543 6.894 0 1.864-.236 3.534-.707 5.008-.472 1.518-1.286 3.1-2.443 4.748-1.114 1.561-2.164 2.862-3.15 3.902-.986 1.084-2.7 2.883-5.143 5.398l-2.893-4.813a22.225 22.225 0 0 0 5.306-4.646l.03-.037c1.542-1.821 2.314-3.49 2.314-5.008 0-.781-.172-1.41-.514-1.886a8.361 8.361 0 0 1-5.014 1.626c-1.328 0-2.593-.412-3.793-1.236a8.638 8.638 0 0 1-2.935-3.078l-.022-.043C.386 11.62 0 10.32 0 8.976c0-1.518.429-2.97 1.286-4.358A10.313 10.313 0 0 1 4.65 1.262l.045-.025C6.065.413 7.479.001 8.937.001z" />
    </symbol>
    <symbol id="icon-house" viewBox="0 0 35 32">
      <path fill="#d31342" style="fill:var(--color4, #d31342)" d="M32.64 15.4a1.539 1.539 0 0 0-.128-2.223l-.002-.002L17.737.426a1.849 1.849 0 0 0-1.184-.425c-.466 0-.892.171-1.218.454l.002-.002L.516 13.856a1.53 1.53 0 0 0-.072 2.222l.373.381c.613.635 1.611.709 2.224.168l1.107-.979v14.328a1.6 1.6 0 0 0 1.6 1.589H11.55a1.6 1.6 0 0 0 1.6-1.589V19.951h7.371v10.024c-.013.88.624 1.589 1.515 1.589h6.134a1.6 1.6 0 0 0 1.6-1.589V15.849l.685.592c.376.325 1.168.064 1.765-.587l.421-.453z" />
    </symbol>
    <symbol id="icon-github" viewBox="0 0 32 32">
      <path fill="#fff" style="fill:var(--color1, #fff)" d="M16 .941C7.728.941.941 7.73.941 16c0 7.059 4.954 13.47 11.53 15.059v-4.982c-.651.144-1.251.147-1.915-.048-.89-.264-1.613-.856-2.149-1.76-.342-.576-.949-1.203-1.581-1.157l-.155-1.758c1.368-.117 2.55.834 3.253 2.014.312.525.672.832 1.133.968.445.131.923.069 1.482-.128.139-1.117.651-1.536 1.037-2.123-3.922-.586-5.485-2.667-6.106-4.309-.822-2.181-.381-4.906 1.072-6.627.029-.032.08-.122.061-.182-.667-2.014.144-3.68.176-3.856.768.227.893-.229 3.341 1.258l.422.254c.176.106.122.045.299.032a12.465 12.465 0 0 1 3.15-.445h.01c1.147.018 2.247.183 3.294.478l-.09-.022.138.014c-.013-.002.037-.01.12-.059 3.056-1.851 2.947-1.246 3.766-1.512.03.176.832 1.869.171 3.856-.088.275 2.651 2.784 1.133 6.811-.621 1.643-2.184 3.723-6.106 4.309.502.768 1.107 1.174 1.104 2.755v6.219c6.576-1.589 11.53-8 11.53-15.059 0-8.272-6.787-15.059-15.059-15.059z" />
    </symbol>
    <symbol id="icon-telegram" viewBox="0 0 40 32">
      <path fill="#fff" style="fill:var(--color1, #fff)" d="m16.206 20.75-.636 8.34c.908 0 1.302-.366 1.774-.802l4.26-3.8 8.83 6.034c1.62.84 2.76.398 3.196-1.39l5.796-25.346h.002c.514-2.236-.866-3.108-2.444-2.56L2.92 13.398c-2.324.84-2.29 2.052-.396 2.6l8.71 2.528 20.23-11.814c.952-.588 1.816-.264 1.104.326L16.206 20.75z" />
    </symbol>
    <symbol id="icon-facebook" viewBox="0 0 16 32">
      <path fill="#fff" style="fill:var(--color1, #fff)" d="M14.266 15.97H10.09v15.39H3.762V15.968H.754V10.56h3.008V7.062C3.762 4.558 4.946.64 10.146.64l4.688.019v5.25h-3.402c-.557 0-1.342.282-1.342 1.475v3.184h4.73l-.554 5.4z" />
    </symbol>
    <symbol id="icon-Vector-2" viewBox="0 0 26 32">
<path fill="none" stroke="#d41443" style="stroke: var(--color1, #d41443)" stroke-linejoin="round" stroke-linecap="round" stroke-miterlimit="4" stroke-width="6.4" d="M5.172 3.2l14.169 12.8-14.169 12.8"></path>
</symbol>
<symbol id="icon-Vector-1" viewBox="0 0 26 32">
<path fill="none" stroke="#fff" style="stroke: var(--color2, #fff)" stroke-linejoin="round" stroke-linecap="round" stroke-miterlimit="4" stroke-width="6.4" d="M5.172 3.2l14.169 12.8-14.169 12.8"></path>
</symbol>
  </defs>
</svg>
